<svg width="58" height="58" viewBox="0 0 58 58" fill="none" xmlns="http://www.w3.org/2000/svg">
<circle cx="29" cy="29" r="29" fill="#ED7268"/>
<path d="M29 23.7324C29.873 23.7324 30.5807 23.0347 30.5807 22.174C30.5807 21.3132 29.873 20.6155 29 20.6155C28.127 20.6155 27.4193 21.3132 27.4193 22.174C27.4193 23.0347 28.127 23.7324 29 23.7324Z" fill="white"/>
<path d="M34.0561 15.2236L28.9797 21.0591C28.7702 21.2999 28.7984 21.6625 29.0426 21.869L29.0457 21.8716C29.2899 22.0781 29.6577 22.0504 29.8672 21.8096L34.9436 15.9741C35.153 15.7333 35.1249 15.3707 34.8806 15.1642L34.8775 15.1616C34.6333 14.955 34.2655 14.9828 34.0561 15.2236Z" fill="white"/>
<path d="M29.3952 22.9492L24.3884 41.9762C24.3552 42.0993 24.2817 42.2082 24.1793 42.2859C24.0769 42.3636 23.9513 42.4058 23.8221 42.406H15.5603C15.4701 42.4062 15.381 42.3858 15.3002 42.3464C15.2193 42.3069 15.1489 42.2495 15.0944 42.1786C15.0399 42.1077 15.0028 42.0254 14.9861 41.9379C14.9694 41.8505 14.9735 41.7605 14.9981 41.6749L22.5307 15.205C22.5688 15.0878 22.6439 14.9856 22.745 14.9134C22.8462 14.8411 22.968 14.8026 23.0929 14.8034H35.0008C35.1257 14.8026 35.2475 14.8411 35.3486 14.9134C35.4498 14.9856 35.5249 15.0878 35.563 15.205L43.0956 41.6749C43.1206 41.7618 43.1245 41.8533 43.107 41.942C43.0894 42.0306 43.0509 42.114 42.9945 42.1852C42.9381 42.2564 42.8655 42.3135 42.7826 42.3519C42.6996 42.3902 42.6087 42.4088 42.5171 42.406H34.2716C34.1424 42.4058 34.0168 42.3636 33.9144 42.2859C33.812 42.2082 33.7385 42.0993 33.7053 41.9762L28.6048 22.5636L29.3952 22.9492ZM35.1841 41.2532H40.9935C41.0851 41.254 41.1756 41.2335 41.2576 41.1934C41.3397 41.1533 41.411 41.0946 41.4658 41.0223C41.5205 40.9499 41.5572 40.8658 41.5728 40.7768C41.5885 40.6878 41.5826 40.5964 41.5557 40.5101L34.679 16.3498C34.6408 16.2325 34.5657 16.1304 34.4646 16.0581C34.3635 15.9859 34.2417 15.9474 34.1168 15.9481H25.7531H24.5V15.75L24.0991 15.4297C24.0991 15.4297 25.237 16.8161 25.3091 16.9001L29.6885 21.9169L29.6518 22.0615L34.6097 40.8234C34.6426 40.9482 34.7172 41.0585 34.8214 41.1364C34.9256 41.2144 35.0534 41.2555 35.1841 41.2532ZM17.1084 41.2532H22.9218C23.0507 41.2535 23.176 41.2114 23.2778 41.1336C23.3797 41.0557 23.4522 40.9465 23.484 40.8234L28.3278 22.4993C28.352 22.4097 28.3536 22.3156 28.3322 22.2252C28.3109 22.1349 28.2674 22.0511 28.2056 21.9812L24.0991 17.2575C24.0303 17.1789 23.5 16.5 23.5 16.5C23.3972 16.5227 23.5764 16.1785 23.5 16.25C23.4236 16.3215 23.1253 17.3784 23.097 17.4785L16.538 40.5101C16.5111 40.5964 16.5052 40.6878 16.5209 40.7768C16.5365 40.8658 16.5732 40.9499 16.6279 41.0223C16.6827 41.0946 16.754 41.1533 16.8361 41.1934C16.9181 41.2335 17.0086 41.254 17.1002 41.2532H17.1084Z" fill="white"/>
<path d="M31.2325 30.5126C31.3098 30.5128 31.3863 30.4964 31.4565 30.4644L37.8973 27.7852C37.9679 27.7555 38.0438 27.7398 38.1206 27.739C38.1973 27.7383 38.2735 27.7525 38.3447 27.7809C38.4158 27.8092 38.4806 27.8512 38.5353 27.9043C38.59 27.9575 38.6334 28.0207 38.6632 28.0905V28.0905C38.696 28.161 38.7139 28.2372 38.716 28.3147C38.7181 28.3921 38.7042 28.4692 38.6753 28.5412C38.6464 28.6133 38.603 28.6788 38.5477 28.7339C38.4924 28.789 38.4264 28.8325 38.3536 28.8617L31.6928 31.6332C31.6217 31.6621 31.5457 31.6771 31.4688 31.6774" fill="white"/>
<path d="M26.4009 31.6171L19.7401 28.8617C19.6693 28.8323 19.6052 28.7895 19.5513 28.7355C19.4974 28.6816 19.4548 28.6178 19.426 28.5476C19.3973 28.4774 19.3828 28.4023 19.3836 28.3266C19.3844 28.251 19.4003 28.1762 19.4305 28.1066V28.1066C19.4603 28.0368 19.5037 27.9735 19.5584 27.9204C19.6131 27.8673 19.6779 27.8253 19.749 27.7969C19.8202 27.7686 19.8964 27.7543 19.9731 27.7551C20.0499 27.7558 20.1258 27.7715 20.1963 27.8013L26.629 30.4684" fill="white"/>
<path d="M23.02 17.1169C23.8899 17.1169 24.595 16.4192 24.595 15.5585C24.595 14.6978 23.8899 14 23.02 14C22.1502 14 21.445 14.6978 21.445 15.5585C21.445 16.4192 22.1502 17.1169 23.02 17.1169Z" fill="white"/>
<path d="M34.9193 17.1169C35.7923 17.1169 36.5 16.4192 36.5 15.5585C36.5 14.6978 35.7923 14 34.9193 14C34.0464 14 33.3387 14.6978 33.3387 15.5585C33.3387 16.4192 34.0464 17.1169 34.9193 17.1169Z" fill="white"/>
<path d="M38.4717 29.9583C39.3447 29.9583 40.0524 29.2605 40.0524 28.3998C40.0524 27.5391 39.3447 26.8413 38.4717 26.8413C37.5988 26.8413 36.8911 27.5391 36.8911 28.3998C36.8911 29.2605 37.5988 29.9583 38.4717 29.9583Z" fill="white"/>
<path d="M19.5242 29.9583C20.3972 29.9583 21.1048 29.2605 21.1048 28.3998C21.1048 27.5391 20.3972 26.8413 19.5242 26.8413C18.6512 26.8413 17.9435 27.5391 17.9435 28.3998C17.9435 29.2605 18.6512 29.9583 19.5242 29.9583Z" fill="white"/>
<path d="M26.629 32.6816C27.502 32.6816 28.2097 31.9838 28.2097 31.1231C28.2097 30.2624 27.502 29.5646 26.629 29.5646C25.756 29.5646 25.0483 30.2624 25.0483 31.1231C25.0483 31.9838 25.756 32.6816 26.629 32.6816Z" fill="white"/>
<path d="M31.3669 32.6816C32.2399 32.6816 32.9476 31.9838 32.9476 31.1231C32.9476 30.2624 32.2399 29.5646 31.3669 29.5646C30.4939 29.5646 29.7863 30.2624 29.7863 31.1231C29.7863 31.9838 30.4939 32.6816 31.3669 32.6816Z" fill="white"/>
<path d="M34.129 43.1892C35.002 43.1892 35.7097 42.4915 35.7097 41.6307C35.7097 40.77 35.002 40.0723 34.129 40.0723C33.256 40.0723 32.5483 40.77 32.5483 41.6307C32.5483 42.4915 33.256 43.1892 34.129 43.1892Z" fill="white"/>
<path d="M42.4193 43.1892C43.2923 43.1892 44 42.4915 44 41.6307C44 40.77 43.2923 40.0723 42.4193 40.0723C41.5464 40.0723 40.8387 40.77 40.8387 41.6307C40.8387 42.4915 41.5464 43.1892 42.4193 43.1892Z" fill="white"/>
<path d="M15.5807 43.1892C16.4536 43.1892 17.1613 42.4915 17.1613 41.6307C17.1613 40.77 16.4536 40.0723 15.5807 40.0723C14.7077 40.0723 14 40.77 14 41.6307C14 42.4915 14.7077 43.1892 15.5807 43.1892Z" fill="white"/>
<path d="M23.8669 43.1892C24.7399 43.1892 25.4476 42.4915 25.4476 41.6307C25.4476 40.77 24.7399 40.0723 23.8669 40.0723C22.9939 40.0723 22.2863 40.77 22.2863 41.6307C22.2863 42.4915 22.9939 43.1892 23.8669 43.1892Z" fill="white"/>
</svg>
